<?xml version="1.0" encoding="utf-8" ?>
<svg baseProfile="full" height="720px" version="1.1" width="1280px" xmlns="http://www.w3.org/2000/svg" xmlns:ev="http://www.w3.org/2001/xml-events" xmlns:xlink="http://www.w3.org/1999/xlink"><defs /><polygon fill="#73a8c5" points="1260,574 1257,577 1257,581 1255,583 1255,586 1252,589 1252,590 1251,591 1250,591 1247,594 1246,594 1245,595 1243,595 1243,596 1242,597 1239,597 1238,598 1237,598 1229,606 1228,606 1227,607 1226,607 1226,608 1225,609 1222,609 1220,611 1219,611 1218,612 1217,612 1216,613 1215,613 1213,615 1210,615 1207,618 1205,618 1204,619 1203,619 1203,620 1202,621 1201,621 1201,628 1202,628 1203,629 1204,629 1205,630 1210,630 1211,629 1213,629 1214,628 1216,628 1218,626 1221,626 1224,623 1226,623 1229,620 1230,620 1232,618 1233,618 1246,605 1247,605 1250,602 1252,602 1254,600 1256,600 1257,599 1258,599 1260,597 1261,597 1264,594 1264,593 1266,591 1266,590 1267,589 1267,586 1268,585 1268,581 1267,580 1267,579 1266,578 1266,577 1264,575 1263,575 1262,574" /><polygon fill="#73a8c5" points="1169,464 1168,465 1167,465 1166,466 1166,467 1165,468 1165,470 1164,471 1164,472 1163,473 1163,479 1162,480 1162,485 1161,486 1161,491 1159,493 1156,493 1155,492 1153,492 1152,491 1151,491 1150,490 1150,489 1149,489 1148,488 1148,487 1147,486 1147,485 1146,484 1146,480 1145,479 1145,473 1146,472 1146,470 1145,469 1145,468 1144,467 1143,467 1142,466 1137,466 1136,465 1119,465 1118,466 1117,466 1114,469 1114,470 1113,471 1113,475 1111,477 1098,477 1096,479 1095,479 1094,480 1093,480 1089,484 1089,485 1088,486 1088,487 1086,489 1086,490 1083,493 1083,494 1082,495 1081,495 1080,496 1080,497 1079,498 1078,498 1077,499 1076,499 1074,501 1072,501 1072,502 1071,503 1069,503 1068,504 1065,504 1064,505 1057,505 1056,506 1052,506 1051,507 1045,507 1044,508 1043,508 1040,511 1040,513 1039,514 1039,518 1040,519 1040,522 1041,523 1041,527 1042,528 1042,531 1043,532 1043,539 1042,540 1042,542 1041,543 1041,544 1040,545 1040,547 1038,549 1038,550 1037,551 1037,553 1035,555 1035,556 1034,557 1034,563 1035,564 1035,565 1037,567 1037,568 1038,569 1038,572 1040,574 1044,574 1045,573 1046,573 1047,572 1050,572 1051,571 1053,571 1054,570 1058,570 1059,569 1061,569 1062,568 1070,568 1071,567 1073,567 1074,566 1084,566 1085,565 1088,565 1089,564 1094,564 1095,563 1104,563 1105,562 1108,562 1109,563 1113,563 1114,564 1114,565 1115,566 1115,568 1116,569 1116,573 1117,574 1122,574 1125,577 1125,586 1126,587 1126,588 1127,589 1128,589 1129,590 1133,590 1134,591 1134,592 1135,593 1135,594 1137,596 1140,596 1141,597 1143,597 1144,598 1145,598 1147,600 1147,602 1146,603 1141,603 1140,604 1140,605 1139,606 1138,606 1135,609 1135,610 1134,611 1134,613 1135,614 1139,614 1141,612 1142,612 1143,611 1146,611 1147,610 1148,610 1150,608 1152,608 1155,605 1156,605 1156,604 1158,602 1158,594 1159,593 1159,592 1165,586 1166,586 1169,583 1170,583 1170,582 1171,581 1172,581 1175,578 1176,578 1176,577 1177,576 1178,576 1188,566 1189,566 1189,565 1191,563 1191,562 1196,557 1196,555 1197,554 1198,554 1198,552 1199,551 1199,550 1201,548 1201,547 1202,546 1202,532 1201,531 1201,529 1200,528 1200,526 1199,525 1199,524 1198,523 1198,522 1196,520 1196,519 1194,517 1194,516 1193,515 1193,514 1192,513 1192,512 1190,510 1190,507 1189,507 1188,506 1188,503 1187,502 1187,501 1186,500 1186,495 1185,494 1185,493 1184,492 1184,486 1183,485 1183,484 1182,483 1182,478 1180,476 1180,474 1179,473 1179,470 1178,469 1178,468 1177,467 1177,466 1176,465 1174,465 1173,464" /><polygon fill="#73a8c5" points="1086,403 1084,405 1083,405 1083,406 1079,410 1079,413 1078,414 1078,416 1077,417 1077,426 1076,427 1076,434 1077,435 1077,436 1078,437 1080,437 1081,436 1083,436 1085,434 1090,434 1090,433 1092,431 1093,431 1093,430 1095,428 1096,428 1097,427 1100,427 1101,428 1105,428 1106,429 1106,430 1109,430 1110,429 1113,429 1114,428 1127,428 1129,430 1132,430 1133,431 1134,431 1135,432 1136,432 1137,433 1139,433 1140,434 1149,434 1150,435 1151,435 1152,436 1152,437 1150,439 1149,439 1149,440 1148,441 1147,441 1147,446 1149,446 1150,447 1151,447 1152,448 1154,448 1155,449 1156,449 1157,450 1159,450 1161,452 1162,452 1164,454 1165,454 1167,456 1168,456 1169,457 1169,458 1173,458 1180,451 1181,451 1183,449 1186,449 1195,458 1196,458 1197,459 1197,460 1198,460 1199,461 1200,461 1201,462 1202,462 1203,463 1205,463 1206,462 1206,460 1205,459 1205,457 1204,456 1204,451 1205,450 1205,448 1207,446 1207,445 1209,443 1210,443 1210,442 1212,440 1213,440 1213,439 1214,438 1215,438 1216,437 1216,436 1218,434 1218,433 1219,432 1219,429 1217,427 1214,427 1213,428 1212,428 1211,429 1209,429 1209,430 1207,432 1206,432 1205,433 1201,433 1200,434 1199,434 1198,435 1194,435 1193,436 1191,436 1190,435 1188,435 1186,433 1186,432 1184,432 1182,430 1182,429 1181,429 1176,424 1175,424 1174,423 1172,423 1170,421 1169,421 1168,420 1166,420 1165,419 1156,419 1155,420 1153,420 1152,421 1152,422 1151,423 1149,423 1149,424 1148,425 1144,421 1144,420 1143,420 1142,419 1142,417 1141,417 1135,411 1129,411 1129,412 1127,414 1127,418 1125,420 1121,420 1120,421 1119,421 1118,422 1117,421 1117,418 1116,417 1116,412 1114,410 1114,409 1113,408 1112,408 1111,407 1110,408 1109,408 1109,412 1108,413 1108,414 1107,415 1107,417 1106,418 1102,414 1102,413 1101,412 1101,411 1100,410 1100,408 1099,407 1099,406 1098,405 1096,405 1095,404 1094,404 1093,403" /><polygon fill="#73a8c5" points="1066,376 1065,377 1063,377 1062,378 1061,378 1061,379 1060,380 1060,381 1057,384 1057,385 1054,388 1054,389 1053,390 1052,390 1052,391 1050,393 1049,393 1049,394 1047,396 1046,396 1045,397 1040,397 1039,398 1038,398 1037,399 1035,399 1035,416 1036,417 1036,421 1037,422 1037,428 1038,428 1040,430 1041,430 1042,431 1049,431 1050,432 1056,432 1057,433 1064,433 1066,431 1066,429 1067,428 1067,426 1068,425 1068,422 1069,421 1069,420 1070,419 1070,418 1072,416 1073,416 1073,415 1074,414 1075,414 1076,413 1076,412 1077,411 1077,409 1076,408 1076,405 1074,403 1074,399 1075,398 1075,397 1076,396 1076,387 1074,385 1074,383 1073,382 1073,381 1070,378 1069,378 1068,377 1067,377" /><polygon fill="#73a8c5" points="1079,325 1078,326 1077,326 1077,328 1074,331 1074,332 1073,333 1073,338 1074,339 1074,341 1075,342 1075,344 1076,344 1077,345 1077,348 1078,349 1078,350 1079,351 1079,353 1080,354 1080,356 1086,362 1086,364 1087,365 1087,372 1086,373 1086,375 1085,376 1085,379 1086,380 1087,380 1089,382 1091,382 1092,383 1093,383 1094,384 1096,384 1098,386 1101,386 1103,388 1108,388 1110,386 1110,385 1111,384 1111,381 1110,380 1110,375 1109,374 1109,371 1108,370 1108,366 1107,365 1107,363 1102,358 1102,357 1101,357 1099,355 1099,354 1098,354 1096,352 1096,351 1094,351 1093,350 1093,349 1091,349 1090,348 1089,348 1088,347 1088,344 1087,343 1087,339 1086,338 1086,333 1085,332 1085,330 1084,329 1084,327 1082,325" /><polygon fill="#73a8c5" points="524,107 523,108 521,108 520,109 520,110 519,111 519,113 520,114 520,115 521,116 521,120 522,121 522,122 523,123 523,128 524,128 526,130 526,131 528,131 529,132 532,132 533,131 536,131 537,130 541,130 542,129 543,129 544,128 547,128 548,127 549,127 550,126 552,126 553,125 555,125 556,124 557,124 559,122 559,121 560,120 560,117 558,115 558,108 557,107" /><polygon fill="#73a8c5" points="646,55 645,56 643,56 642,57 637,57 635,59 632,59 631,60 630,60 629,61 629,66 630,66 632,68 633,68 634,69 634,70 635,70 636,71 637,71 638,72 640,72 641,73 642,73 643,74 648,74 649,75 653,75 654,74 655,74 656,73 656,71 657,70 657,69 658,68 659,68 660,69 660,70 663,73 663,74 667,74 667,73 668,72 669,72 670,71 672,71 674,69 675,69 676,68 678,68 680,66 681,66 683,64 684,64 686,62 689,62 690,61 690,57 676,57 675,56 669,56 668,55" /><polygon fill="#73a8c5" points="835,54 834,55 834,56 833,57 834,58 834,60 835,61 835,62 836,62 837,63 838,63 839,64 841,64 842,65 845,65 846,66 851,66 852,67 856,67 857,68 863,68 864,69 865,69 867,71 868,71 869,72 870,72 872,74 872,75 870,77 865,77 864,78 858,78 857,79 852,79 851,80 850,80 849,81 845,81 844,82 843,82 841,84 839,84 838,85 834,85 833,86 829,86 828,87 820,87 819,88 818,88 817,89 817,90 816,91 816,92 815,93 814,92 814,91 812,89 812,87 811,87 810,86 810,85 809,85 806,82 806,81 799,81 799,92 800,93 800,96 801,97 801,98 802,98 803,99 803,101 802,102 801,101 800,101 798,99 797,99 796,98 795,98 794,97 783,97 781,99 771,99 770,98 773,95 773,93 772,93 770,91 767,91 766,90 765,90 764,89 764,88 765,87 765,86 767,84 768,84 769,83 771,83 772,82 773,82 774,81 775,81 776,80 780,80 781,79 783,79 784,78 788,78 789,77 792,77 794,75 794,69 792,69 791,68 788,68 787,67 786,67 785,68 780,68 779,69 773,69 771,71 769,71 768,72 766,72 765,73 763,73 761,75 759,75 758,76 757,76 757,77 756,78 755,78 754,79 754,80 753,81 752,81 752,83 751,84 751,88 749,90 749,94 750,95 751,95 752,96 753,96 755,98 756,98 757,99 757,100 756,101 755,101 754,102 750,102 749,103 746,103 745,104 740,104 739,105 733,105 731,107 730,107 729,108 728,107 728,106 727,105 727,104 726,103 725,103 724,102 723,102 722,101 720,101 718,99 714,99 713,98 712,98 711,97 708,97 707,96 705,96 704,95 700,95 698,93 692,93 691,92 688,92 687,91 680,91 679,92 674,92 673,93 665,93 664,94 663,94 662,95 658,95 657,96 655,96 654,97 652,97 651,98 650,98 649,99 647,99 644,102 643,102 643,105 642,106 642,107 641,108 641,110 640,111 640,112 638,114 637,114 634,117 632,117 632,118 631,119 630,119 629,120 627,120 625,122 624,122 623,123 621,123 619,125 618,125 617,126 615,126 611,130 611,131 610,132 610,134 611,135 611,137 612,138 612,139 615,142 615,143 616,143 617,144 617,145 618,146 626,146 628,144 632,144 633,143 634,143 635,144 636,144 637,145 637,149 638,150 638,152 639,153 639,154 640,155 641,155 642,156 646,156 647,155 649,155 650,154 651,154 652,153 653,153 654,152 655,152 656,151 656,147 657,146 657,132 658,131 658,129 665,122 666,123 666,130 668,132 668,133 669,134 669,136 670,137 671,137 672,138 673,138 674,139 671,142 671,145 670,146 669,146 668,147 667,147 667,150 666,151 666,157 664,159 663,159 661,161 656,161 655,162 646,162 645,161 643,161 641,159 640,159 639,158 639,157 636,154 636,153 634,151 634,150 632,148 629,148 627,150 627,151 626,152 626,156 625,157 625,158 624,159 623,159 623,161 622,162 619,162 618,163 617,163 617,164 616,165 615,165 612,168 612,169 610,171 609,171 609,172 605,176 604,176 602,174 602,172 603,171 603,164 602,163 602,162 600,160 600,159 599,158 599,157 598,156 597,156 596,155 596,153 595,152 595,150 594,149 594,145 595,144 595,143 596,142 596,136 595,135 589,135 587,137 583,137 582,138 579,138 578,139 576,139 575,140 574,140 572,142 572,143 571,144 571,146 569,148 569,150 566,153 566,154 563,157 563,158 562,159 561,159 560,160 560,161 558,163 558,170 559,171 559,173 560,174 560,176 561,177 561,178 563,180 567,180 568,179 569,179 570,178 570,177 572,175 572,174 573,173 573,171 576,168 576,167 577,166 578,166 579,165 580,166 580,169 577,172 577,173 575,175 575,184 579,184 580,185 579,186 578,186 577,187 577,190 580,193 580,194 581,194 584,197 585,197 586,198 586,203 585,204 584,204 583,205 578,205 577,206 575,206 574,207 567,207 566,208 563,208 562,209 560,209 559,210 558,210 557,211 557,217 559,219 559,224 558,225 558,228 557,229 557,235 558,236 558,238 560,240 562,240 563,241 563,242 564,242 565,243 565,244 566,245 565,246 565,247 563,249 563,250 560,253 560,254 559,255 558,255 557,256 557,257 556,258 555,258 551,262 551,274 547,278 546,278 545,279 542,279 539,282 538,282 537,283 537,284 536,285 535,285 535,286 532,289 532,290 531,291 531,292 529,294 529,295 527,297 527,298 526,299 526,300 525,301 525,302 524,303 523,303 523,305 521,307 521,309 520,310 520,314 521,315 521,317 522,317 523,318 523,320 525,322 525,323 526,324 526,326 527,327 527,328 526,329 526,331 523,334 523,335 522,336 522,337 520,339 520,340 519,341 519,342 518,343 518,349 520,351 520,352 523,355 523,358 525,360 525,361 529,365 529,366 530,367 530,368 531,369 531,372 532,373 532,374 533,375 533,377 539,383 540,383 541,384 542,384 543,385 543,386 545,386 546,387 546,388 547,389 548,389 550,391 551,391 555,395 557,395 558,396 559,396 560,395 562,395 563,394 565,394 567,392 570,392 571,391 574,391 575,390 588,390 589,389 590,389 593,386 594,386 595,385 596,385 597,384 599,384 600,383 607,383 608,384 607,385 607,387 609,389 609,391 610,391 611,392 613,392 615,394 617,394 618,395 620,395 621,396 628,396 629,397 629,405 628,406 628,407 627,408 627,410 626,411 626,421 627,422 627,423 629,425 629,426 630,427 630,428 634,432 634,434 635,435 635,436 637,438 637,439 638,440 638,441 639,442 639,443 640,444 640,447 641,448 641,449 642,450 642,451 643,452 643,464 642,465 642,467 641,468 641,469 640,470 640,471 639,472 639,473 637,475 637,478 635,480 635,493 636,494 636,495 637,496 637,500 638,501 638,502 640,504 640,506 642,508 642,509 643,510 643,511 644,512 645,512 646,513 646,514 647,515 647,516 648,517 648,518 649,519 648,520 648,524 647,525 647,537 648,538 648,539 649,540 649,542 650,542 657,549 657,550 659,552 659,553 660,554 660,556 661,557 661,566 662,567 662,569 663,570 663,574 664,575 665,575 666,576 666,577 667,578 673,578 674,577 675,577 676,576 678,576 679,575 680,575 681,574 682,574 683,573 684,573 685,572 688,572 689,571 690,571 691,570 694,570 695,569 698,569 700,567 701,567 702,566 703,566 704,565 705,565 708,562 709,562 714,557 714,556 716,554 716,553 719,550 719,549 720,548 720,547 722,545 722,543 723,542 724,542 724,536 725,535 725,534 726,533 727,533 728,532 729,532 731,530 733,530 733,529 735,527 736,527 736,519 737,518 737,516 736,515 736,506 738,504 738,503 760,481 760,480 761,479 761,474 760,473 760,468 759,467 759,464 758,463 758,456 756,454 756,449 755,448 755,447 754,446 754,432 756,430 756,429 759,426 759,425 769,415 770,415 770,414 771,413 772,413 773,412 773,411 774,410 775,410 776,409 776,408 777,407 778,407 778,406 779,405 779,404 784,399 784,398 787,395 787,394 790,391 790,390 792,388 792,387 794,385 794,384 795,383 796,383 796,381 799,378 799,376 801,374 801,373 802,372 802,368 803,367 803,357 802,356 802,353 793,353 792,354 789,354 788,355 785,355 784,356 783,356 782,357 776,357 775,358 772,358 771,357 770,357 769,356 768,356 767,355 767,354 766,354 764,352 764,351 763,351 762,350 762,349 759,346 759,343 756,340 756,339 755,339 753,337 753,336 751,336 750,335 750,333 748,333 746,331 745,331 742,328 742,327 741,326 741,325 740,324 740,317 739,316 739,311 738,310 738,309 736,307 736,306 734,304 734,303 733,302 733,300 732,299 732,298 730,296 730,291 729,290 729,289 728,288 729,287 730,287 732,289 732,290 733,290 735,292 735,293 736,293 737,294 737,295 738,296 739,296 740,297 740,298 743,301 743,302 744,302 745,303 745,304 746,305 746,306 749,309 749,310 751,312 751,313 753,315 753,316 754,317 754,318 755,319 755,320 757,322 757,323 758,324 758,325 760,327 760,330 761,331 761,333 762,334 762,335 763,336 763,345 764,346 764,347 766,349 766,350 768,350 770,352 775,352 776,351 777,351 778,350 782,350 784,348 786,348 787,347 789,347 790,346 791,346 793,344 795,344 796,343 797,343 798,342 799,342 800,341 801,341 802,340 803,340 804,339 805,339 806,338 807,338 808,337 809,337 811,335 813,335 814,334 815,334 817,332 818,332 819,331 819,330 820,329 821,329 822,328 822,327 824,325 824,324 827,321 827,320 828,319 828,318 829,317 830,317 830,314 831,313 831,312 832,311 832,303 831,303 830,302 830,301 828,301 827,300 826,300 825,299 823,299 821,297 820,297 819,296 818,296 815,293 814,293 813,294 812,294 809,297 802,297 799,294 798,294 796,292 796,291 795,291 793,289 793,288 792,288 790,286 790,285 789,285 787,283 787,282 786,282 785,281 785,280 784,279 783,279 782,278 782,277 783,276 784,276 785,275 788,275 789,276 789,277 790,277 791,278 792,278 795,281 796,281 797,282 797,283 798,284 799,284 800,285 800,286 801,287 802,287 803,288 803,289 804,290 805,290 806,291 819,291 820,292 821,292 822,293 823,293 824,294 827,294 829,296 834,296 835,297 843,297 844,296 855,296 857,298 857,299 858,299 859,300 859,301 860,302 860,304 863,307 863,308 865,310 865,311 866,312 866,313 867,314 868,314 869,315 876,315 877,316 881,316 882,317 881,318 881,329 882,330 882,331 883,332 883,334 886,337 886,338 889,341 889,342 890,343 890,344 891,345 891,346 893,348 893,350 894,351 894,354 895,355 895,357 896,358 896,359 897,360 897,366 898,367 898,368 899,369 899,373 900,374 900,376 902,378 905,378 906,377 907,377 908,376 909,376 911,374 914,374 915,375 915,382 917,384 917,388 918,388 921,391 923,391 924,390 925,390 927,388 927,387 928,386 928,377 927,376 927,375 926,374 926,372 924,370 924,369 923,369 922,368 922,367 921,367 918,364 920,362 920,350 919,349 919,345 920,344 920,339 922,337 922,336 923,335 924,335 936,323 936,322 939,319 939,318 940,317 941,317 942,316 942,315 943,314 945,314 946,313 947,313 948,312 952,312 953,311 954,311 955,312 959,312 960,313 960,316 962,318 962,319 963,320 963,322 964,323 965,323 966,324 966,328 967,329 967,330 969,332 969,335 970,335 971,336 971,338 972,339 972,340 973,341 974,341 975,342 978,342 979,341 980,341 984,337 985,338 985,339 986,340 986,347 987,348 987,350 988,351 988,352 989,353 989,362 988,363 988,368 989,369 989,374 991,376 991,377 997,383 997,384 1000,387 1000,388 1001,389 1001,391 999,393 997,393 996,392 996,391 995,391 992,388 992,387 991,387 990,386 990,385 989,385 987,383 984,383 983,382 982,383 981,383 979,385 979,386 980,387 980,388 983,391 983,392 984,393 984,394 986,396 986,398 987,399 987,401 989,403 989,405 990,406 990,407 991,408 991,409 993,411 993,413 995,415 995,416 997,418 997,419 998,419 999,420 999,421 1003,425 1003,427 1004,428 1005,428 1006,429 1006,430 1007,431 1008,431 1009,432 1009,434 1010,434 1011,435 1011,436 1013,438 1013,439 1017,443 1018,443 1020,445 1022,445 1023,446 1025,446 1026,447 1026,448 1029,448 1030,449 1033,449 1034,450 1037,450 1038,451 1040,451 1041,452 1055,452 1056,453 1057,453 1058,454 1062,454 1063,455 1065,455 1066,456 1068,456 1069,457 1071,457 1072,458 1076,458 1077,459 1079,459 1080,460 1096,460 1098,458 1101,458 1103,456 1104,456 1105,455 1106,455 1106,447 1099,447 1097,449 1093,449 1092,450 1087,450 1086,451 1077,451 1076,450 1076,449 1074,449 1073,448 1069,448 1068,447 1059,447 1058,446 1057,446 1056,445 1051,445 1050,444 1048,444 1047,443 1045,443 1044,442 1043,442 1042,441 1040,441 1039,440 1038,440 1037,439 1036,439 1035,438 1034,438 1033,437 1031,437 1030,436 1028,436 1027,435 1026,435 1025,434 1025,433 1024,432 1025,431 1025,430 1026,429 1026,417 1024,415 1022,415 1021,414 1018,414 1017,413 1015,413 1013,411 1013,409 1014,408 1016,408 1017,407 1017,405 1018,404 1018,402 1017,401 1017,396 1016,395 1016,391 1014,389 1014,388 1010,384 1010,383 1008,381 1008,380 1004,376 1004,375 1003,375 1002,374 1002,372 1001,372 1000,371 1000,370 999,369 999,367 998,366 998,365 997,364 997,363 996,362 996,355 997,354 999,354 1000,355 1001,355 1002,356 1003,356 1015,368 1015,369 1017,371 1021,371 1022,370 1023,370 1025,368 1026,368 1029,365 1030,365 1034,361 1034,360 1035,359 1036,359 1036,354 1037,353 1036,352 1036,348 1034,346 1034,344 1030,340 1030,339 1028,337 1028,336 1024,332 1024,331 1022,329 1022,328 1021,327 1020,327 1019,326 1019,324 1018,323 1018,321 1017,320 1019,318 1021,318 1025,314 1027,314 1028,315 1028,318 1027,319 1027,325 1029,327 1029,329 1030,330 1031,330 1032,331 1033,331 1033,330 1034,329 1034,328 1035,327 1035,326 1036,325 1036,321 1038,319 1038,318 1042,314 1044,314 1046,312 1048,312 1049,311 1051,311 1052,310 1053,310 1054,309 1055,309 1056,308 1057,308 1058,307 1059,307 1059,306 1060,305 1061,305 1065,301 1065,300 1066,299 1067,300 1067,304 1069,306 1069,308 1070,308 1073,311 1076,311 1076,310 1078,308 1078,300 1077,299 1077,297 1076,296 1071,296 1070,297 1069,297 1068,298 1068,299 1067,300 1066,299 1066,297 1068,295 1068,294 1069,293 1069,291 1070,290 1070,288 1071,287 1071,286 1072,285 1072,283 1073,282 1073,277 1074,276 1074,274 1073,273 1073,271 1070,268 1070,267 1069,267 1068,266 1068,264 1067,263 1067,262 1065,260 1065,259 1060,254 1060,253 1058,251 1058,249 1057,249 1056,248 1058,246 1059,246 1060,245 1060,242 1059,241 1059,240 1057,240 1056,239 1056,238 1055,238 1054,237 1046,237 1045,238 1042,238 1041,237 1041,234 1043,232 1043,231 1048,226 1050,228 1050,229 1051,230 1051,231 1053,233 1058,233 1060,231 1061,231 1063,233 1065,233 1066,234 1066,235 1067,235 1068,236 1069,236 1073,240 1073,241 1076,244 1076,245 1077,246 1077,247 1078,248 1078,249 1079,250 1079,251 1080,252 1080,253 1081,254 1087,254 1090,251 1090,249 1091,248 1092,248 1092,243 1090,241 1090,240 1087,237 1086,237 1083,234 1082,234 1078,230 1078,229 1079,228 1079,227 1080,226 1080,217 1082,215 1087,215 1088,214 1091,214 1092,213 1093,213 1094,212 1095,212 1096,211 1096,210 1097,209 1097,208 1098,207 1098,204 1099,203 1099,186 1098,185 1098,183 1096,181 1096,180 1095,179 1095,178 1096,177 1097,178 1098,178 1100,180 1100,181 1103,184 1103,187 1105,189 1105,191 1106,192 1106,194 1107,195 1107,196 1109,198 1109,203 1111,205 1111,210 1112,211 1112,215 1113,216 1113,217 1114,218 1114,219 1115,220 1115,221 1116,221 1117,222 1117,223 1118,224 1119,224 1120,225 1120,226 1122,228 1122,230 1121,231 1121,233 1120,234 1120,236 1119,237 1119,239 1118,240 1117,240 1117,241 1115,243 1113,243 1111,245 1110,245 1109,246 1107,246 1106,247 1103,247 1101,249 1099,249 1099,251 1098,252 1098,253 1097,254 1097,257 1096,258 1095,258 1095,260 1094,261 1094,265 1097,268 1098,268 1099,269 1102,269 1103,270 1105,270 1106,269 1107,269 1110,266 1110,265 1112,263 1113,263 1113,262 1115,260 1117,260 1119,258 1120,258 1121,257 1122,257 1123,256 1126,256 1127,255 1133,255 1134,254 1138,254 1138,249 1136,247 1136,244 1134,242 1134,241 1133,240 1133,239 1132,238 1132,233 1131,232 1131,231 1130,230 1130,222 1129,222 1128,221 1128,219 1129,218 1130,218 1130,217 1131,216 1133,216 1134,215 1136,215 1140,211 1140,210 1141,209 1142,209 1142,205 1141,205 1139,203 1136,203 1135,204 1132,204 1131,205 1120,205 1119,204 1119,203 1118,202 1118,201 1117,200 1117,198 1116,197 1116,195 1115,195 1114,194 1114,192 1113,191 1113,190 1112,189 1112,186 1111,186 1110,185 1110,180 1102,172 1102,171 1101,171 1099,169 1099,168 1098,168 1096,166 1096,165 1095,165 1092,162 1091,162 1090,161 1089,161 1088,162 1083,162 1082,161 1063,161 1062,160 1062,158 1063,157 1063,156 1064,155 1064,152 1065,151 1065,150 1066,149 1066,148 1067,147 1067,146 1068,145 1068,144 1070,142 1071,142 1072,141 1075,141 1076,142 1086,142 1087,143 1093,143 1094,144 1097,144 1098,145 1103,145 1105,143 1105,140 1106,139 1106,138 1105,137 1105,136 1106,135 1106,132 1107,131 1110,131 1112,133 1113,133 1114,134 1117,134 1118,135 1120,135 1121,134 1122,134 1122,129 1123,128 1126,128 1128,130 1128,133 1126,135 1126,136 1123,139 1123,140 1122,141 1121,141 1121,146 1120,147 1120,150 1121,151 1121,152 1123,154 1123,155 1125,155 1126,156 1126,157 1127,158 1128,158 1132,162 1133,162 1135,164 1135,165 1137,167 1138,167 1140,169 1140,170 1141,170 1143,172 1143,173 1144,173 1147,176 1152,176 1153,175 1153,171 1152,170 1152,161 1151,160 1151,159 1150,158 1150,151 1149,151 1147,149 1146,149 1142,145 1142,144 1140,142 1140,141 1139,140 1140,139 1153,139 1155,137 1156,137 1159,134 1159,133 1160,132 1161,132 1162,131 1167,131 1168,130 1173,130 1174,129 1174,127 1173,126 1173,125 1172,124 1172,123 1171,123 1170,122 1170,121 1169,121 1168,120 1167,120 1166,119 1167,118 1172,118 1173,119 1176,119 1177,120 1179,120 1181,122 1185,122 1186,123 1188,123 1189,122 1190,122 1190,118 1189,117 1189,114 1187,112 1187,111 1180,111 1179,110 1176,110 1175,109 1171,109 1170,108 1168,108 1167,107 1165,107 1164,106 1163,106 1162,105 1158,105 1156,103 1153,103 1152,102 1148,102 1147,101 1145,101 1144,100 1142,100 1141,99 1135,99 1134,98 1131,98 1130,97 1129,97 1128,96 1129,95 1130,95 1130,90 1129,89 1128,89 1126,87 1120,87 1120,88 1118,90 1117,90 1117,93 1116,94 1116,96 1115,97 1088,97 1087,96 1082,96 1081,95 1074,95 1073,94 1071,94 1070,93 1060,93 1059,92 1046,92 1045,91 1039,91 1038,90 1036,90 1035,89 1034,89 1032,87 1027,87 1026,86 1018,86 1017,85 1015,85 1013,83 1013,81 1012,80 1012,78 1011,78 1010,77 1010,75 1008,75 1007,74 1007,73 1005,73 1004,72 1002,72 1001,71 993,71 992,72 979,72 978,73 977,73 976,74 976,76 977,77 977,78 979,80 981,80 983,82 986,82 987,83 989,83 990,84 991,84 993,86 994,86 997,89 998,89 999,90 998,91 979,91 978,90 977,90 976,89 976,88 975,88 974,87 973,87 969,83 968,83 967,82 965,82 964,81 956,81 955,80 945,80 944,81 928,81 927,80 923,80 922,79 920,79 918,77 918,76 916,74 916,72 915,72 913,70 913,69 908,69 907,68 904,68 903,69 884,69 882,67 880,67 879,66 877,66 875,64 874,64 873,63 872,63 869,60 868,60 867,59 866,59 865,58 864,58 863,57 857,57 856,56 854,56 853,55 845,55 844,54" /><polygon fill="#73a8c5" points="749,52 748,53 744,53 742,55 740,55 739,56 734,56 733,55 720,55 718,57 717,57 717,59 718,59 721,62 725,62 727,64 727,65 729,67 733,67 734,66 741,66 742,65 746,65 747,64 753,64 754,63 761,63 762,62 769,62 769,58 768,57 765,57 764,56 764,55 762,55 761,54 760,54 759,53 754,53 753,52" /><polygon fill="#73a8c5" points="412,48 411,49 393,49 392,50 389,50 388,51 378,51 377,52 376,52 375,53 372,53 371,54 369,54 368,55 366,55 364,57 363,57 361,59 360,59 359,60 357,60 356,61 354,61 353,62 351,62 350,63 328,63 327,64 321,64 320,63 311,63 310,64 309,64 308,65 307,65 306,66 305,66 304,67 303,67 302,66 302,65 300,65 299,64 295,64 294,65 292,65 291,66 288,66 287,67 285,67 284,68 283,68 282,69 276,69 273,72 273,73 274,74 274,75 275,76 277,76 278,77 280,77 281,78 283,78 284,79 286,79 287,80 298,80 299,79 302,79 303,78 311,78 312,79 317,79 318,78 319,78 320,77 321,77 322,76 323,76 324,75 325,75 326,74 329,74 331,72 333,72 334,71 338,71 339,70 342,70 343,71 342,72 341,72 339,74 338,74 337,75 335,75 334,76 334,77 333,78 332,78 332,79 330,81 329,81 329,82 328,83 327,83 326,82 325,82 324,81 320,81 320,82 319,83 316,83 311,88 311,91 312,92 312,93 315,96 313,98 312,98 311,99 307,99 306,100 306,101 305,102 303,102 302,103 295,103 294,102 295,101 296,101 297,100 299,100 299,99 300,98 301,98 304,95 304,88 308,84 308,82 307,81 301,81 299,83 286,83 284,81 280,81 279,80 279,79 277,79 276,78 274,78 273,77 271,77 270,76 268,76 267,75 260,75 259,76 257,76 256,77 255,77 254,78 253,78 250,81 249,81 243,87 243,91 244,92 256,92 257,93 257,98 256,99 254,99 252,97 247,97 246,96 235,96 234,95 228,95 227,94 214,94 213,95 209,95 208,96 205,96 204,97 202,97 201,98 200,98 199,99 195,99 194,100 191,100 190,99 186,99 185,98 184,98 183,97 181,97 180,96 178,96 177,95 174,95 173,94 172,94 171,93 165,93 164,92 163,92 162,91 143,91 142,92 141,92 140,93 133,93 131,95 127,95 126,96 123,96 122,97 119,97 118,98 117,98 116,99 112,99 110,101 108,101 107,102 105,102 104,103 103,103 103,108 101,110 89,110 88,111 79,111 78,112 77,112 77,113 76,114 76,115 77,116 77,118 78,119 79,119 80,120 78,122 76,122 75,123 69,123 67,125 66,125 65,126 63,126 63,127 61,129 60,129 60,130 59,131 58,131 57,132 56,132 53,135 53,137 54,138 56,138 58,140 61,140 63,142 66,142 67,143 67,144 66,145 63,145 62,146 61,146 60,147 56,147 54,149 52,149 51,150 49,150 48,151 46,151 45,152 44,152 43,153 39,153 38,154 37,154 36,155 35,155 34,156 30,156 29,157 26,157 25,158 24,158 23,159 21,159 19,161 18,161 17,162 16,162 13,165 13,166 11,168 11,169 13,171 15,171 16,170 20,170 22,168 25,168 26,167 27,167 28,166 31,166 32,165 33,165 34,164 38,164 40,162 42,162 43,161 46,161 47,160 49,160 51,158 56,158 58,156 60,156 61,155 64,155 65,154 67,154 68,153 69,153 70,152 74,152 75,153 75,155 77,157 79,157 80,156 81,156 82,155 83,155 84,154 85,154 89,150 90,150 91,149 92,149 93,148 93,146 96,143 96,141 97,140 98,140 99,139 100,139 101,140 110,140 112,138 114,138 115,137 118,137 119,136 125,136 126,137 127,137 128,138 130,138 132,140 135,140 136,141 137,141 138,142 139,142 141,144 141,145 142,146 138,150 138,153 137,154 138,155 138,158 139,159 139,161 136,164 135,164 134,165 133,165 132,166 132,172 138,172 140,170 141,170 141,168 142,167 142,165 143,164 144,164 145,163 146,164 146,166 143,169 143,173 141,175 140,175 140,176 139,177 139,183 143,187 143,193 141,195 141,197 140,198 140,199 137,202 137,203 136,204 135,204 135,205 132,208 132,209 130,211 129,211 129,213 126,216 126,217 124,219 124,220 123,221 123,251 124,251 126,253 126,254 129,254 133,258 133,271 134,272 134,274 137,277 137,288 138,288 141,291 141,299 142,300 142,301 143,302 144,302 147,305 149,305 150,306 153,306 153,304 154,303 154,302 153,301 153,300 152,299 152,296 151,295 151,294 150,293 150,291 149,290 149,288 148,287 148,284 147,283 147,282 146,281 146,278 145,277 145,270 146,269 147,270 147,272 149,274 149,277 150,278 150,279 151,280 151,282 152,283 152,284 153,285 153,287 154,288 154,290 155,291 155,293 156,293 157,294 157,296 158,297 158,298 164,304 164,305 165,305 166,306 166,308 167,309 167,310 166,311 166,315 165,316 165,321 166,322 166,324 170,328 171,328 172,329 174,329 175,330 176,330 178,332 179,332 180,333 181,333 183,335 184,335 187,338 189,338 191,340 192,340 193,341 195,341 196,342 201,342 202,341 204,341 205,340 210,340 212,342 212,343 215,346 215,347 216,347 217,348 217,349 218,349 219,350 221,350 223,352 228,352 229,353 231,353 232,354 232,355 234,357 234,359 235,360 235,364 237,366 237,367 238,368 239,368 241,370 243,370 244,371 245,371 246,372 248,372 249,373 249,374 251,374 252,375 252,376 254,378 255,378 257,380 263,380 264,379 268,379 269,380 269,396 268,397 268,398 266,400 266,401 264,403 263,403 263,404 262,405 261,405 261,406 258,409 258,410 257,411 257,412 255,414 255,419 257,421 257,422 259,424 259,425 258,426 258,428 257,429 257,431 256,432 255,432 255,440 256,440 257,441 257,442 259,444 259,445 263,449 263,450 264,451 264,452 265,452 266,453 266,454 268,456 268,457 269,458 269,460 271,462 271,463 272,464 272,466 273,467 273,468 274,469 274,471 275,472 275,474 276,475 276,476 277,477 277,478 279,480 279,481 283,485 284,485 287,488 290,488 292,490 294,490 295,491 296,491 297,492 298,492 304,498 304,499 306,501 306,503 307,504 307,526 306,527 306,557 307,558 307,563 308,564 308,566 309,567 309,590 311,592 311,593 312,594 312,596 313,597 313,608 314,609 314,610 315,611 317,611 318,612 319,612 320,613 320,617 319,618 319,626 320,627 320,630 321,631 321,638 322,638 323,639 323,644 325,644 326,645 326,647 327,647 329,649 329,650 331,650 332,651 333,651 335,653 336,653 338,655 339,655 340,656 341,656 344,659 345,659 346,660 346,661 349,661 350,660 351,660 352,661 350,663 350,666 351,667 351,668 352,669 352,670 362,670 363,671 376,671 377,670 378,670 378,666 377,666 375,664 374,664 373,663 372,663 370,661 369,661 368,660 366,660 365,659 363,659 362,658 362,657 361,657 360,656 360,654 359,653 359,651 357,649 357,648 356,647 356,645 355,644 355,642 356,641 356,639 357,638 357,637 358,636 358,633 357,633 356,632 356,630 355,630 352,627 351,627 350,626 350,621 352,619 352,618 353,617 353,615 354,614 355,614 355,613 356,612 356,609 352,605 353,604 357,604 360,601 360,600 362,598 362,597 365,594 367,594 368,593 370,593 376,587 376,581 375,580 375,579 374,579 373,578 373,576 371,574 372,573 376,573 377,572 382,572 384,570 385,570 386,569 386,568 388,566 388,564 389,563 390,563 390,558 392,556 392,555 393,554 393,552 394,551 395,551 396,550 396,548 397,547 397,546 398,545 398,542 399,541 399,528 400,527 401,527 402,526 404,526 405,525 406,525 407,524 412,524 414,522 416,522 417,521 419,521 420,520 421,520 423,518 425,518 428,515 428,514 430,512 430,507 432,505 432,501 433,500 433,495 434,494 434,488 433,487 433,474 434,473 435,473 436,472 436,470 440,466 440,465 448,457 448,456 450,454 450,444 451,443 451,442 450,441 450,435 449,435 446,432 444,432 443,431 437,431 436,430 435,430 433,428 433,426 431,424 431,423 428,423 427,422 417,422 416,421 413,421 412,420 411,420 410,419 409,419 405,415 402,415 401,414 400,414 399,413 394,413 393,412 391,412 388,409 388,404 387,403 387,402 386,401 386,399 385,398 385,397 383,395 383,394 382,393 382,392 381,392 379,390 378,390 376,388 375,388 374,387 372,387 370,385 368,385 367,384 365,384 364,383 363,383 362,382 360,382 359,381 357,381 356,380 356,379 355,379 352,376 352,375 350,373 350,369 348,367 348,365 347,364 347,363 343,359 342,359 341,358 338,358 337,359 332,359 331,360 329,360 328,361 319,361 318,360 316,360 315,359 314,359 312,357 310,357 309,356 308,356 306,354 304,354 303,353 300,353 299,352 294,352 293,353 292,353 291,354 289,354 286,357 285,357 285,358 281,362 280,362 279,363 278,363 277,364 277,365 276,366 275,366 273,368 268,368 267,367 260,367 259,366 258,366 255,363 254,363 253,362 253,361 251,359 251,358 250,357 250,355 251,354 251,352 252,351 252,339 250,339 249,338 246,338 245,337 240,337 239,336 237,336 236,335 236,334 235,334 234,333 236,331 236,329 239,326 239,325 242,322 242,321 243,320 243,319 244,318 244,312 243,312 242,311 234,311 233,312 232,312 229,315 228,315 216,327 215,327 213,329 211,329 210,328 208,328 206,326 206,325 204,323 204,321 202,319 202,315 201,314 201,312 200,311 200,304 199,303 199,301 200,300 200,294 202,292 202,290 204,288 204,287 211,280 212,280 214,278 215,278 216,277 217,277 218,276 220,276 221,275 232,275 233,274 235,274 236,273 237,273 238,272 250,272 251,273 253,273 254,274 256,274 257,275 259,275 262,278 262,281 261,282 261,286 263,288 263,290 269,296 272,296 273,297 272,298 272,299 271,300 269,300 268,301 266,301 265,302 263,302 262,303 258,303 255,306 254,306 254,307 253,308 254,309 254,310 255,311 257,311 258,312 268,312 269,313 272,313 273,314 275,314 276,315 276,317 275,318 275,326 276,326 277,327 277,328 288,328 289,329 297,329 298,330 308,330 309,331 314,331 315,332 329,332 330,333 331,333 332,334 336,334 336,333 337,332 337,330 336,329 336,327 334,327 333,326 332,326 331,325 321,325 320,324 317,324 316,323 314,323 313,322 311,322 310,321 308,321 307,320 306,320 305,319 303,319 302,318 301,318 300,317 299,317 298,316 297,316 296,315 291,315 290,314 289,314 287,312 286,312 284,310 284,309 283,309 282,308 282,304 281,303 281,294 280,293 280,290 279,289 279,287 278,286 278,285 277,285 276,284 276,282 274,280 274,279 273,278 273,276 272,275 272,270 273,269 273,267 274,266 275,266 278,263 279,263 280,262 281,262 284,259 285,259 285,258 286,257 287,257 288,256 289,256 294,251 295,251 296,250 296,249 299,246 299,245 300,244 300,243 302,241 302,239 308,233 310,233 313,230 314,230 315,229 316,229 316,228 317,227 319,227 322,224 323,224 326,221 327,221 330,218 331,218 340,209 341,209 344,206 346,206 349,209 350,209 351,210 361,210 362,209 364,209 365,208 367,208 369,206 371,206 372,205 373,205 375,203 376,203 380,199 380,198 379,197 378,197 377,196 373,196 372,195 366,195 365,194 364,194 363,193 363,192 364,191 364,188 363,187 362,187 361,186 359,186 358,185 354,185 353,184 355,182 356,182 357,181 359,181 360,180 362,180 364,182 364,183 365,184 365,185 366,186 367,186 368,185 369,186 370,186 371,185 373,185 374,184 376,184 378,182 379,182 380,181 382,181 384,179 388,179 389,180 389,182 385,186 383,186 382,187 381,187 381,188 380,189 380,190 381,191 383,191 384,192 388,192 389,193 390,193 391,194 393,194 395,196 400,196 402,194 403,194 406,191 406,189 405,188 405,187 404,186 404,184 402,182 402,167 401,166 401,165 400,164 400,162 399,161 399,159 398,159 395,156 394,156 393,155 393,153 392,152 392,138 390,136 390,135 387,135 385,137 384,137 381,140 380,140 379,141 375,141 373,139 373,133 372,132 371,132 370,131 370,130 369,129 368,129 367,128 367,127 366,126 365,126 364,125 357,125 356,124 355,124 354,123 349,123 347,125 346,125 345,126 345,128 344,129 343,129 343,131 342,132 342,133 340,135 340,137 338,139 338,140 337,141 337,145 338,146 338,149 339,150 338,151 338,153 334,157 333,157 331,159 329,159 329,160 328,161 326,161 324,163 323,163 323,164 322,165 321,165 320,166 320,167 319,168 319,169 317,171 317,172 314,175 313,175 312,174 312,168 313,167 313,159 309,155 304,155 303,154 299,154 298,153 293,153 290,150 290,147 289,146 289,145 288,144 288,140 291,137 292,137 295,134 297,134 298,133 299,133 301,131 302,131 304,129 305,129 306,128 307,128 309,126 310,126 311,125 313,125 314,124 315,124 317,122 324,122 326,124 326,127 327,128 332,128 333,127 333,125 334,124 334,123 335,122 341,122 342,121 343,121 345,119 345,118 342,115 342,114 343,113 344,113 345,112 346,112 348,110 350,110 353,107 353,105 354,104 355,104 357,102 359,102 360,101 361,101 362,100 363,100 365,98 368,98 369,99 369,101 368,102 368,103 367,104 367,105 366,106 366,109 367,110 366,111 362,111 361,112 360,112 359,113 357,113 356,114 356,115 357,116 357,118 358,118 360,120 361,120 363,122 365,122 366,123 367,123 368,124 371,124 372,125 373,125 374,126 374,127 378,131 379,131 380,132 384,132 385,131 386,131 389,128 390,128 390,126 391,125 392,125 393,124 394,124 395,123 396,123 397,122 400,122 402,120 405,120 406,119 407,119 408,118 410,118 412,116 413,116 414,115 414,114 415,113 415,112 413,110 413,108 412,108 410,106 410,105 409,105 405,101 405,100 404,99 404,98 405,97 405,96 406,95 407,95 407,94 408,93 408,90 407,89 405,89 404,88 403,88 402,87 394,87 393,86 392,86 390,84 388,84 387,83 362,83 361,84 359,84 358,85 355,85 354,86 348,86 347,87 346,87 346,92 345,93 345,96 344,97 343,97 343,98 342,99 337,99 336,98 336,97 333,94 333,91 334,90 336,90 337,89 338,89 339,88 342,88 344,86 344,81 343,80 344,79 348,79 349,80 369,80 370,81 378,81 379,80 382,80 384,78 384,77 385,76 385,74 386,73 387,74 393,74 394,73 395,73 397,71 398,71 400,69 401,69 402,68 404,68 406,66 407,66 408,65 410,65 411,64 413,64 414,63 415,63 416,62 421,62 423,60 429,60 430,61 428,63 425,63 424,64 423,64 422,65 418,65 417,66 415,66 414,67 414,68 413,69 413,70 414,71 414,72 415,73 415,74 419,74 420,75 424,75 425,76 433,76 434,75 436,75 437,76 438,76 440,78 440,80 441,81 441,95 443,97 443,101 442,102 441,102 438,105 437,105 437,106 434,109 434,110 433,111 433,116 434,117 434,120 435,121 435,125 436,125 437,126 437,128 444,135 445,135 447,137 448,137 449,138 451,138 452,139 454,139 455,138 456,138 457,137 458,137 459,136 459,135 460,134 460,133 462,131 462,130 465,127 465,126 466,125 467,125 470,122 471,122 472,121 473,121 473,120 474,119 476,119 478,117 479,117 480,116 487,116 488,115 491,115 492,114 493,114 494,113 496,113 499,110 500,110 503,107 507,107 508,106 517,106 518,105 519,105 520,104 526,104 527,103 528,103 529,102 533,102 534,101 535,101 536,100 536,99 537,98 538,98 539,97 539,96 540,95 540,94 542,92 542,91 545,88 545,87 546,86 548,86 549,85 550,85 552,83 553,83 556,80 556,72 555,71 555,68 556,67 556,66 557,65 560,65 561,64 562,64 563,63 565,63 566,62 575,62 576,61 576,57 575,57 574,56 574,55 573,54 573,53 572,52 571,52 570,51 565,51 564,52 560,52 559,53 554,53 552,51 550,51 549,50 548,50 547,49 528,49 527,48 499,48 498,49 483,49 482,50 476,50 475,51 473,51 472,50 466,50 465,49 453,49 452,48" /></svg>